<svg xmlns="http://www.w3.org/2000/svg" xmlns:xlink="http://www.w3.org/1999/xlink" width="500" zoomAndPan="magnify" viewBox="0 0 375 374.999991" height="500" preserveAspectRatio="xMidYMid meet" version="1.0"><defs><clipPath id="id1"><path d="M 281 164 L 375 164 L 375 328.125 L 281 328.125 Z M 281 164 " clip-rule="nonzero"/></clipPath><clipPath id="id2"><path d="M 140 46.875 L 235 46.875 L 235 328.125 L 140 328.125 Z M 140 46.875 " clip-rule="nonzero"/></clipPath><clipPath id="id3"><path d="M 0 117 L 94 117 L 94 328.125 L 0 328.125 Z M 0 117 " clip-rule="nonzero"/></clipPath></defs><g clip-path="url(#id1)"><path fill="#f44336" d="M 375 304.6875 L 375 187.5 C 375 174.5625 364.5 164.0625 351.5625 164.0625 L 304.6875 164.0625 C 291.75 164.0625 281.25 174.5625 281.25 187.5 L 281.25 304.6875 C 281.25 317.625 291.75 328.125 304.6875 328.125 L 351.5625 328.125 C 364.5 328.125 375 317.625 375 304.6875 Z M 375 304.6875 " fill-opacity="1" fill-rule="nonzero"/></g><g clip-path="url(#id2)"><path fill="#2196f3" d="M 210.9375 328.125 C 223.875 328.125 234.375 317.625 234.375 304.6875 L 234.375 70.3125 C 234.375 57.375 223.875 46.875 210.9375 46.875 L 164.0625 46.875 C 151.140625 46.875 140.625 57.375 140.625 70.3125 L 140.625 304.6875 C 140.625 317.625 151.140625 328.125 164.0625 328.125 Z M 210.9375 328.125 " fill-opacity="1" fill-rule="nonzero"/></g><g clip-path="url(#id3)"><path fill="#ffc107" d="M 0 304.6875 C 0 317.625 10.515625 328.125 23.4375 328.125 L 70.3125 328.125 C 83.25 328.125 93.75 317.625 93.75 304.6875 L 93.75 140.625 C 93.75 127.6875 83.25 117.1875 70.3125 117.1875 L 23.4375 117.1875 C 10.515625 117.1875 0 127.6875 0 140.625 Z M 0 304.6875 " fill-opacity="1" fill-rule="nonzero"/></g></svg>